<?xml version="1.0" encoding="utf-8"?>
<!-- Generator: Adobe Illustrator 26.5.0, SVG Export Plug-In . SVG Version: 6.00 Build 0)  -->
<svg version="1.1" id="Layer_1" xmlns="http://www.w3.org/2000/svg" xmlns:xlink="http://www.w3.org/1999/xlink" x="0px" y="0px"
	 viewBox="0 0 334.3 350" style="enable-background:new 0 0 334.3 350;" xml:space="preserve">
<style type="text/css">
	.st0{fill:#D90A16;}
</style>
<path class="st0" d="M110,57c13.6-13.6,36-13.6,49.5,0s13.6,36,0,49.5s-36,13.6-49.5,0S96.2,70.5,110,57z M334.6,10L210,164.5
	c-1.9,2.2-3.8,4.7-5.7,6.9c-9.5,12.3-17.7,25.6-24.3,39.7c-13.2,28.1-20.8,59.6-20.8,93.1V350h-49.5v-47.9c0-4.1,0-8.2-0.3-12.3
	c-1.6-28.7-8.8-55.5-20.2-80.1c-2.8-6-6-12-9.5-18l-1.3-2.2L-0.4,57.9L135,172.7l0,0l0,0L334.6,10z"/>
</svg>
