<svg clip-rule="evenodd" fill-rule="evenodd" height="512" stroke-linejoin="round" stroke-miterlimit="2" viewBox="0 0 24 24" width="512" xmlns="http://www.w3.org/2000/svg"><g id="Icon"><path d="m18.75 3v4.5c0 .414.336.75.75.75s.75-.336.75-.75v-4.5c0-.414-.336-.75-.75-.75s-.75.336-.75.75z"/><path d="m21.53 3.97-1.5-1.5c-.293-.293-.767-.293-1.06 0l-1.5 1.5c-.293.292-.293.768 0 1.06.292.293.768.293 1.06 0l.97-.969s.97.969.97.969c.292.293.768.293 1.06 0 .293-.292.293-.768 0-1.06z"/><path d="m8.337 21.75h8.663c1.26 0 2.468-.5 3.359-1.391.763-.764 1.24-1.76 1.361-2.823l-4.706-3.764c-.519-.416-1.273-.352-1.715.145zm-6.087-7.25v2.5c0 1.26.5 2.468 1.391 3.359.741.74 1.7 1.211 2.726 1.349l5.541-6.233-4.189-3.808c-.444-.403-1.112-.435-1.591-.075zm19.417-8.382c-.134.055-.275.093-.417.114v1.268c0 .966-.784 1.75-1.75 1.75s-1.75-.784-1.75-1.75v-1.268c-.361-.052-.71-.217-.987-.495-.683-.683-.683-1.791 0-2.474l.957-.958c-.237-.036-.477-.055-.72-.055h-10c-1.26 0-2.468.5-3.359 1.391s-1.391 2.099-1.391 3.359v5.625l2.978-2.233c1.055-.792 2.524-.722 3.5.165l4.176 3.797 1.274-1.433c.972-1.094 2.631-1.235 3.773-.32l3.799 3.039v-8.64c0-.298-.028-.593-.083-.882zm-12.167-1.118c.828 0 1.5.672 1.5 1.5s-.672 1.5-1.5 1.5-1.5-.672-1.5-1.5.672-1.5 1.5-1.5z"/></g></svg>